<svg preserveAspectRatio="none" overflow="visible" style="display: block;" width="364" height="310.645" viewBox="0 0 364 310.645" fill="none" xmlns="http://www.w3.org/2000/svg">
<g id="Union">
<mask id="path-1-inside-1_0_4" fill="white">
<path d="M336 0C351.464 0 364 12.536 364 28V240C364 255.464 351.464 268 336 268H312.033L314.119 310.645L261.046 268H28C12.536 268 3.2215e-07 255.464 0 240V28C0 12.536 12.536 5.63728e-07 28 0H336Z"/>
</mask>
<path d="M336 0C351.464 0 364 12.536 364 28V240C364 255.464 351.464 268 336 268H312.033L314.119 310.645L261.046 268H28C12.536 268 3.2215e-07 255.464 0 240V28C0 12.536 12.536 5.63728e-07 28 0H336Z" fill="#E5E2E9"/>
<path d="M364 28H369V28H364ZM336 268V273V273V268ZM312.033 268V263H306.783L307.039 268.244L312.033 268ZM314.119 310.645L310.987 314.542L319.656 321.508L319.113 310.4L314.119 310.645ZM261.046 268L264.178 264.102L262.806 263H261.046V268ZM0 240H-5V240H0ZM28 0V-5V-5V0ZM336 0V5C348.703 5 359 15.2975 359 28H364H369C369 9.7746 354.225 -5 336 -5V0ZM364 28H359V240H364H369V28H364ZM364 240H359C359 252.703 348.703 263 336 263V268V273C354.225 273 369 258.225 369 240H364ZM336 268V263H312.033V268V273H336V268ZM312.033 268L307.039 268.244L309.125 310.889L314.119 310.645L319.113 310.4L317.027 267.756L312.033 268ZM314.119 310.645L317.251 306.747L264.178 264.102L261.046 268L257.914 271.898L310.987 314.542L314.119 310.645ZM261.046 268V263H28V268V273H261.046V268ZM28 268V263C15.2975 263 5 252.703 5 240H0H-5C-5 258.225 9.7746 273 28 273V268ZM0 240H5V28H0H-5V240H0ZM0 28H5C5 15.2975 15.2975 5 28 5V0V-5C9.7746 -5 -5 9.7746 -5 28H0ZM28 0V5H336V0V-5H28V0Z" fill="black" mask="url(#path-1-inside-1_0_4)"/>
</g>
</svg>
